<svg xmlns="http://www.w3.org/2000/svg" width="101" height="33" viewBox="0 0 101 33" fill="none"><path fill-rule="evenodd" clip-rule="evenodd" d="M25.5043 0.815918H28.8342C29.3501 0.815918 29.7488 1.23802 29.7488 1.73048V5.06041C29.7488 5.57631 29.3267 5.97496 28.8342 5.97496H25.5043C24.9884 5.97496 24.5897 5.55286 24.5897 5.06041V1.75393C24.5897 1.23802 25.0118 0.815918 25.5043 0.815918ZM24.8711 7.61631H30.0302C30.8275 7.61631 31.4607 8.24946 31.4607 9.04677V14.2058C31.4607 15.0031 30.8275 15.6363 30.0302 15.6363H24.8711C24.0973 15.6363 23.4407 15.0031 23.4407 14.2058V9.04677C23.4407 8.27291 24.0738 7.61631 24.8711 7.61631ZM20.0873 20.8891C21.6819 17.9813 20.6267 14.3465 17.7188 12.7519C14.811 11.1573 11.1762 12.2125 9.58161 15.0969C7.98699 18.0047 9.04225 21.6395 11.9501 23.2576C14.8579 24.8522 18.4927 23.7735 20.0873 20.8891ZM29.0687 18.1458H23.9331C23.8628 23.1407 19.7824 27.1741 14.7641 27.1741C9.69886 27.1741 5.59507 23.0703 5.59507 18.0051C5.59507 12.9398 9.69886 8.83603 14.7641 8.83603C16.5463 8.83603 18.2113 9.35193 19.6183 10.2196L22.831 6.18616L23.1827 5.7406C20.955 4.21634 18.3051 3.30178 15.4442 3.18453C7.26004 2.83278 0.365679 9.18778 0.0139257 17.3719C-0.337827 25.556 6.01718 32.4504 14.2013 32.8021C22.3854 33.1539 29.2798 26.7989 29.6315 18.6148V18.6147C29.6315 18.4506 29.6315 18.3099 29.655 18.1458H29.0687ZM35.0954 3.18428H32.3283C31.9062 3.18428 31.5545 3.53603 31.5545 3.95813V6.72526C31.5545 7.14736 31.9062 7.49911 32.3283 7.49911H35.0954C35.5175 7.49911 35.8693 7.14736 35.8693 6.72526V3.95813C35.8693 3.53603 35.5175 3.18428 35.0954 3.18428Z" fill="#72BF44"></path><path d="M95.597 11.5559C95.6204 10.7351 95.8549 10.313 96.277 10.313H97.684C98.0827 10.313 98.3172 10.7117 98.3641 11.5324V11.6028V12.8691C98.3641 13.7837 98.6924 14.3934 99.3724 14.7217C99.8414 14.9327 100.123 15.0969 100.217 15.2141C100.31 15.3314 100.357 15.4486 100.357 15.5893C100.357 15.9176 100.099 16.1756 99.56 16.3866C99.0207 16.5977 98.6924 16.8322 98.5986 17.1136C98.4813 17.395 98.4344 17.9109 98.4344 18.6613V19.529V20.3966C98.4344 20.9125 98.4579 21.2643 98.5282 21.4519C98.5986 21.6395 98.6924 21.8271 98.8565 22.0147C99.0207 22.1788 99.3724 22.4837 99.9587 22.8823C100.31 23.1403 100.475 23.3513 100.475 23.5155C100.475 23.7031 100.217 23.7969 99.7007 23.7969C98.9034 23.7969 98.1999 23.7031 97.6137 23.492C97.0274 23.281 96.6053 22.9996 96.3474 22.6244C96.0894 22.2492 95.9252 21.8505 95.8783 21.4284C95.8314 21.0063 95.808 20.0918 95.808 18.6613C95.808 17.864 95.7611 17.3481 95.6673 17.137C95.5735 16.926 95.2686 16.668 94.7527 16.4101C94.2368 16.1521 93.9789 15.8473 93.9789 15.5424C93.9789 15.2376 94.2134 14.9796 94.7058 14.7451C94.9872 14.6044 95.2217 14.3934 95.4093 14.1354C95.5735 13.8775 95.6673 13.3381 95.6673 12.5642V11.6731L95.597 11.5559ZM88.4915 15.73C87.9756 15.73 87.5066 15.8707 87.108 16.1521C86.7093 16.4335 86.5217 16.8087 86.5217 17.2543C86.5217 17.7233 86.639 18.0516 86.8735 18.2861C87.108 18.5206 87.6004 18.6378 88.3743 18.6378C89.0074 18.6378 89.4999 18.5206 89.8282 18.2861C90.1565 18.0516 90.3207 17.6998 90.3207 17.2308C90.3207 16.8087 90.133 16.4335 89.7813 16.1521C89.3826 15.8707 88.9605 15.73 88.4915 15.73ZM91.9622 19.6228L89.6875 19.5759C88.515 19.5759 87.7411 19.6462 87.3425 19.8104C86.9438 19.9511 86.7562 20.2559 86.7562 20.7015C86.7562 21.9912 87.9053 22.6478 90.2269 22.6478L91.4463 22.6244C91.798 22.6244 91.9622 22.6947 91.9622 22.812C91.9622 23.1403 91.6339 23.3982 90.9773 23.5858C90.3207 23.7734 89.5468 23.8438 88.6557 23.8438C86.9204 23.8438 85.5603 23.4217 84.5988 22.554C83.6373 21.6864 83.1449 20.467 83.1449 18.8958C83.1449 17.606 83.6373 16.5273 84.6222 15.6362C85.6072 14.7451 86.7797 14.2996 88.1163 14.2996C89.0778 14.2996 89.922 14.4872 90.6959 14.8624C91.4697 15.2376 92.056 15.73 92.4781 16.3632C92.9002 16.9963 93.1112 17.606 93.1112 18.2157C93.1112 18.6613 93.0174 19.0131 92.8298 19.2476C92.6422 19.5055 92.3608 19.6228 91.9622 19.6228ZM81.4096 22.7182C81.4096 23.3279 81.1282 23.6327 80.5419 23.6327H79.2053C78.5487 23.6327 78.2203 23.3279 78.2203 22.7651V19.3648C78.2203 18.3564 78.0093 17.5357 77.5637 16.926C77.1182 16.3163 76.5085 16.0114 75.6877 16.0114C74.14 16.0114 73.3662 17.0667 73.3662 19.1772V22.7182C73.3662 22.9996 73.2724 23.2106 73.0848 23.3982C72.8972 23.5624 72.6627 23.6562 72.3812 23.6562H68.6292L70.2238 21.616V16.5273L68.6292 14.4872H72.3109C72.4516 14.4872 72.6157 14.5341 72.7799 14.6513C72.944 14.7686 73.0613 14.8155 73.1317 14.8155C73.2255 14.8155 73.46 14.7451 73.8821 14.6279C74.7732 14.3465 75.6643 14.1823 76.6023 14.1823C78.1735 14.1823 79.3694 14.6279 80.2136 15.5424C81.0344 16.4335 81.4565 17.7467 81.4565 19.4117V22.7182H81.4096ZM63.0481 23.6562H61.5942C61.2893 23.6562 61.0079 23.5624 60.7499 23.3748C60.5154 23.1872 60.3044 22.9527 60.1402 22.6244C59.9761 22.2961 59.6009 21.4519 59.0615 20.0214C58.4987 18.6144 58.0766 17.4888 57.7952 16.6915C57.5138 15.8707 57.3731 15.3783 57.3731 15.1438C57.3731 14.6748 57.6545 14.4403 58.2173 14.4403H59.2491C59.6947 14.4403 60.0464 14.8624 60.3278 15.7066C61.1955 18.5909 61.8756 20.0449 62.3446 20.0449C62.4853 20.0449 62.626 19.9511 62.7667 19.7635C62.9074 19.5759 63.1419 19.06 63.4936 18.2157C63.8454 17.3715 64.0799 16.668 64.244 16.0818C64.4082 15.4955 64.5489 15.0969 64.713 14.9093C64.8537 14.7217 65.0179 14.581 65.2289 14.5341C65.4165 14.4637 65.7214 14.4403 66.1669 14.4403C66.5656 14.4403 66.8705 14.4872 67.0112 14.581C67.1753 14.6748 67.2457 14.8858 67.2457 15.2141C67.2457 15.5893 66.8236 16.8791 65.9559 19.06C65.0882 21.2643 64.5254 22.554 64.2206 22.9996C63.8454 23.4451 63.4936 23.6562 63.0481 23.6562ZM51.6044 15.73C51.0885 15.73 50.6195 15.8707 50.2443 16.1521C49.8456 16.4335 49.658 16.8087 49.658 17.2543C49.658 17.7233 49.7753 18.0516 50.0098 18.2861C50.2443 18.5206 50.7367 18.6378 51.5106 18.6378C52.1672 18.6378 52.6362 18.5206 52.9645 18.2861C53.2928 18.0516 53.4569 17.6998 53.4569 17.2308C53.4569 16.8087 53.2693 16.4335 52.9176 16.1521C52.5189 15.8707 52.0968 15.73 51.6044 15.73ZM55.0984 19.6228L52.8238 19.5759C51.6513 19.5759 50.8774 19.6462 50.4788 19.8104C50.0801 19.9511 49.8925 20.2559 49.8925 20.7015C49.8925 21.9912 51.0416 22.6478 53.3631 22.6478L54.5825 22.6244C54.9343 22.6244 55.0984 22.6947 55.0984 22.812C55.0984 23.1403 54.7701 23.3982 54.1135 23.5858C53.4569 23.7734 52.6831 23.8438 51.792 23.8438C50.0567 23.8438 48.6965 23.4217 47.7351 22.554C46.7736 21.6864 46.2812 20.467 46.2812 18.8958C46.2812 17.606 46.7736 16.5273 47.7585 15.6362C48.7434 14.7451 49.916 14.2996 51.2526 14.2996C52.2141 14.2996 53.0583 14.4872 53.8321 14.8624C54.606 15.2376 55.1923 15.73 55.6144 16.3632C56.0365 16.9963 56.2475 17.606 56.2475 18.2157C56.2475 18.6613 56.1537 19.0131 55.9661 19.2476C55.7785 19.5055 55.4971 19.6228 55.0984 19.6228ZM39.2696 16.1756C38.4957 16.1756 37.886 16.4804 37.4404 17.0432C36.9949 17.6295 36.7838 18.3799 36.7838 19.2945C36.7838 19.9745 37.0183 20.6311 37.4873 21.2408C37.9564 21.8505 38.4957 22.1554 39.1289 22.1554C39.8089 22.1554 40.3717 21.8505 40.8407 21.2643C41.3097 20.678 41.5442 19.998 41.5442 19.2476C41.5208 17.2308 40.7704 16.1756 39.2696 16.1756ZM44.5693 22.6713C44.5693 22.9527 44.4755 23.1872 44.3114 23.3748C44.1238 23.5624 43.8893 23.6327 43.6078 23.6327H42.2946C42.107 23.6327 41.9429 23.5624 41.7318 23.4451C41.5442 23.3279 41.3566 23.2575 41.1925 23.2575C40.8876 23.2575 40.4421 23.3513 39.8558 23.5624C39.2696 23.7734 38.824 23.8672 38.4957 23.8672C36.9949 23.8672 35.7989 23.4451 34.8609 22.6244C33.9229 21.8036 33.4539 20.678 33.4539 19.2945C33.4539 17.7936 33.8995 16.5977 34.814 15.7066C35.7286 14.8155 36.9245 14.3699 38.4019 14.3699C39.1523 14.3699 39.8793 14.5341 40.6297 14.8389C40.7704 14.9093 40.9111 14.9327 41.0283 14.9327C41.3801 14.9327 41.5677 14.7451 41.5677 14.3934V12.3297L40.0434 10.2427H43.5609C44.2176 10.2427 44.5224 10.571 44.5224 11.2276V22.6713H44.5693Z" fill="white"></path></svg>