<svg xmlns="http://www.w3.org/2000/svg" width="36" height="33" viewBox="0 0 36 33" fill="none"><path fill-rule="evenodd" clip-rule="evenodd" d="M25.5043 0.815918H28.8342C29.3501 0.815918 29.7488 1.23802 29.7488 1.73048V5.06041C29.7488 5.57631 29.3267 5.97496 28.8342 5.97496H25.5043C24.9884 5.97496 24.5897 5.55286 24.5897 5.06041V1.75393C24.5897 1.23802 25.0118 0.815918 25.5043 0.815918ZM24.8711 7.61631H30.0302C30.8275 7.61631 31.4607 8.24946 31.4607 9.04677V14.2058C31.4607 15.0031 30.8275 15.6363 30.0302 15.6363H24.8711C24.0973 15.6363 23.4407 15.0031 23.4407 14.2058V9.04677C23.4407 8.27291 24.0738 7.61631 24.8711 7.61631ZM20.0873 20.8891C21.6819 17.9813 20.6267 14.3465 17.7188 12.7519C14.811 11.1573 11.1762 12.2125 9.58161 15.0969C7.98699 18.0047 9.04225 21.6395 11.9501 23.2576C14.8579 24.8522 18.4927 23.7735 20.0873 20.8891ZM29.0687 18.1458H23.9331C23.8628 23.1407 19.7824 27.1741 14.7641 27.1741C9.69886 27.1741 5.59507 23.0703 5.59507 18.0051C5.59507 12.9398 9.69886 8.83603 14.7641 8.83603C16.5463 8.83603 18.2113 9.35193 19.6183 10.2196L22.831 6.18616L23.1827 5.7406C20.955 4.21634 18.3051 3.30178 15.4442 3.18453C7.26004 2.83278 0.365679 9.18778 0.0139257 17.3719C-0.337827 25.556 6.01718 32.4504 14.2013 32.8021C22.3854 33.1539 29.2798 26.7989 29.6315 18.6148V18.6147C29.6315 18.4506 29.6315 18.3099 29.655 18.1458H29.0687ZM35.0954 3.18428H32.3283C31.9062 3.18428 31.5545 3.53603 31.5545 3.95813V6.72526C31.5545 7.14736 31.9062 7.49911 32.3283 7.49911H35.0954C35.5175 7.49911 35.8693 7.14736 35.8693 6.72526V3.95813C35.8693 3.53603 35.5175 3.18428 35.0954 3.18428Z" fill="#72BF44"></path></svg>